<mxfile host="app.diagrams.net" modified="2022-01-03T12:05:20.213Z" agent="5.0 (Windows NT 10.0; Win64; x64) AppleWebKit/537.36 (KHTML, like Gecko) Chrome/96.0.4664.110 Safari/537.36" etag="qwLfcZ_x1nNV1zMCQqAj" version="15.8.6" type="github">
  <diagram id="-j5qEpkM1stpORehlWAN" name="Page-1">
    <mxGraphModel dx="1422" dy="762" grid="1" gridSize="10" guides="1" tooltips="1" connect="1" arrows="1" fold="1" page="1" pageScale="1" pageWidth="1169" pageHeight="827" math="0" shadow="0">
      <root>
        <mxCell id="0" />
        <mxCell id="1" parent="0" />
        <mxCell id="o_AM2bvugPRdjeRnzftn-1" value="Data Storage UML Diagram - IBCS IA - Finn Lestrange" style="rounded=1;whiteSpace=wrap;html=1;" vertex="1" parent="1">
          <mxGeometry x="430" y="690" width="310" height="30" as="geometry" />
        </mxCell>
        <mxCell id="o_AM2bvugPRdjeRnzftn-5" style="edgeStyle=orthogonalEdgeStyle;rounded=0;orthogonalLoop=1;jettySize=auto;html=1;exitX=0.93;exitY=0.5;exitDx=0;exitDy=0;exitPerimeter=0;entryX=0.5;entryY=0;entryDx=0;entryDy=0;entryPerimeter=0;" edge="1" parent="1" source="o_AM2bvugPRdjeRnzftn-2" target="o_AM2bvugPRdjeRnzftn-4">
          <mxGeometry relative="1" as="geometry" />
        </mxCell>
        <mxCell id="o_AM2bvugPRdjeRnzftn-13" style="edgeStyle=orthogonalEdgeStyle;rounded=0;orthogonalLoop=1;jettySize=auto;html=1;exitX=0;exitY=0.5;exitDx=0;exitDy=0;exitPerimeter=0;entryX=0.5;entryY=0;entryDx=0;entryDy=0;entryPerimeter=0;" edge="1" parent="1" source="o_AM2bvugPRdjeRnzftn-2" target="o_AM2bvugPRdjeRnzftn-11">
          <mxGeometry relative="1" as="geometry" />
        </mxCell>
        <mxCell id="o_AM2bvugPRdjeRnzftn-2" value="Local State in Browser" style="strokeWidth=2;html=1;shape=mxgraph.flowchart.stored_data;whiteSpace=wrap;" vertex="1" parent="1">
          <mxGeometry x="525" y="40" width="120" height="60" as="geometry" />
        </mxCell>
        <mxCell id="o_AM2bvugPRdjeRnzftn-9" style="edgeStyle=orthogonalEdgeStyle;rounded=0;orthogonalLoop=1;jettySize=auto;html=1;exitX=1;exitY=0.5;exitDx=0;exitDy=0;exitPerimeter=0;entryX=0;entryY=0.5;entryDx=0;entryDy=0;entryPerimeter=0;" edge="1" parent="1" source="o_AM2bvugPRdjeRnzftn-3" target="o_AM2bvugPRdjeRnzftn-4">
          <mxGeometry relative="1" as="geometry" />
        </mxCell>
        <mxCell id="o_AM2bvugPRdjeRnzftn-15" style="edgeStyle=orthogonalEdgeStyle;rounded=0;orthogonalLoop=1;jettySize=auto;html=1;exitX=0.5;exitY=0;exitDx=0;exitDy=0;exitPerimeter=0;entryX=0.5;entryY=0.88;entryDx=0;entryDy=0;entryPerimeter=0;" edge="1" parent="1" source="o_AM2bvugPRdjeRnzftn-3" target="o_AM2bvugPRdjeRnzftn-11">
          <mxGeometry relative="1" as="geometry">
            <Array as="points">
              <mxPoint x="463" y="280" />
              <mxPoint x="401" y="280" />
            </Array>
          </mxGeometry>
        </mxCell>
        <mxCell id="o_AM2bvugPRdjeRnzftn-21" style="edgeStyle=orthogonalEdgeStyle;rounded=0;orthogonalLoop=1;jettySize=auto;html=1;exitX=1;exitY=0.5;exitDx=0;exitDy=0;exitPerimeter=0;entryX=0.5;entryY=0.88;entryDx=0;entryDy=0;entryPerimeter=0;" edge="1" parent="1" source="o_AM2bvugPRdjeRnzftn-3" target="o_AM2bvugPRdjeRnzftn-12">
          <mxGeometry relative="1" as="geometry">
            <Array as="points">
              <mxPoint x="531" y="380" />
              <mxPoint x="531" y="255" />
            </Array>
          </mxGeometry>
        </mxCell>
        <mxCell id="o_AM2bvugPRdjeRnzftn-3" value="Google Firebase&lt;br&gt;Firestore Document&lt;br&gt;Database" style="strokeWidth=2;html=1;shape=mxgraph.flowchart.database;whiteSpace=wrap;spacingTop=25;" vertex="1" parent="1">
          <mxGeometry x="407.5" y="320" width="110" height="120" as="geometry" />
        </mxCell>
        <mxCell id="o_AM2bvugPRdjeRnzftn-8" style="edgeStyle=orthogonalEdgeStyle;rounded=0;orthogonalLoop=1;jettySize=auto;html=1;exitX=0.5;exitY=0;exitDx=0;exitDy=0;exitPerimeter=0;entryX=0.93;entryY=0.5;entryDx=0;entryDy=0;entryPerimeter=0;" edge="1" parent="1" source="o_AM2bvugPRdjeRnzftn-4" target="o_AM2bvugPRdjeRnzftn-2">
          <mxGeometry relative="1" as="geometry">
            <Array as="points">
              <mxPoint x="708" y="70" />
            </Array>
          </mxGeometry>
        </mxCell>
        <mxCell id="o_AM2bvugPRdjeRnzftn-10" style="edgeStyle=orthogonalEdgeStyle;rounded=0;orthogonalLoop=1;jettySize=auto;html=1;exitX=0;exitY=0.5;exitDx=0;exitDy=0;exitPerimeter=0;entryX=1;entryY=0.5;entryDx=0;entryDy=0;entryPerimeter=0;" edge="1" parent="1" source="o_AM2bvugPRdjeRnzftn-4" target="o_AM2bvugPRdjeRnzftn-3">
          <mxGeometry relative="1" as="geometry" />
        </mxCell>
        <mxCell id="o_AM2bvugPRdjeRnzftn-4" value="Google Cloud Storage Bucket&lt;br&gt;" style="strokeWidth=2;html=1;shape=mxgraph.flowchart.database;whiteSpace=wrap;spacingTop=25;" vertex="1" parent="1">
          <mxGeometry x="652.5" y="320" width="110" height="120" as="geometry" />
        </mxCell>
        <mxCell id="o_AM2bvugPRdjeRnzftn-16" style="edgeStyle=orthogonalEdgeStyle;rounded=0;orthogonalLoop=1;jettySize=auto;html=1;exitX=0.5;exitY=0;exitDx=0;exitDy=0;exitPerimeter=0;entryX=0;entryY=0.5;entryDx=0;entryDy=0;entryPerimeter=0;" edge="1" parent="1" source="o_AM2bvugPRdjeRnzftn-11" target="o_AM2bvugPRdjeRnzftn-2">
          <mxGeometry relative="1" as="geometry" />
        </mxCell>
        <mxCell id="o_AM2bvugPRdjeRnzftn-20" style="edgeStyle=orthogonalEdgeStyle;rounded=0;orthogonalLoop=1;jettySize=auto;html=1;exitX=0.5;exitY=0.88;exitDx=0;exitDy=0;exitPerimeter=0;entryX=0.5;entryY=0;entryDx=0;entryDy=0;entryPerimeter=0;" edge="1" parent="1" source="o_AM2bvugPRdjeRnzftn-11" target="o_AM2bvugPRdjeRnzftn-3">
          <mxGeometry relative="1" as="geometry">
            <Array as="points">
              <mxPoint x="401" y="280" />
              <mxPoint x="463" y="280" />
            </Array>
          </mxGeometry>
        </mxCell>
        <mxCell id="o_AM2bvugPRdjeRnzftn-11" value="User Authentication Status" style="strokeWidth=2;html=1;shape=mxgraph.flowchart.multi-document;whiteSpace=wrap;spacingLeft=-5;" vertex="1" parent="1">
          <mxGeometry x="350" y="120" width="101" height="70" as="geometry" />
        </mxCell>
        <mxCell id="o_AM2bvugPRdjeRnzftn-18" style="edgeStyle=orthogonalEdgeStyle;rounded=0;orthogonalLoop=1;jettySize=auto;html=1;exitX=0.5;exitY=0;exitDx=0;exitDy=0;exitPerimeter=0;entryX=0.5;entryY=1;entryDx=0;entryDy=0;entryPerimeter=0;" edge="1" parent="1" source="o_AM2bvugPRdjeRnzftn-12" target="o_AM2bvugPRdjeRnzftn-2">
          <mxGeometry relative="1" as="geometry">
            <Array as="points">
              <mxPoint x="531" y="110" />
              <mxPoint x="585" y="110" />
            </Array>
          </mxGeometry>
        </mxCell>
        <mxCell id="o_AM2bvugPRdjeRnzftn-12" value="Plant Metadata References" style="strokeWidth=2;html=1;shape=mxgraph.flowchart.multi-document;whiteSpace=wrap;spacingLeft=-5;" vertex="1" parent="1">
          <mxGeometry x="480" y="120" width="101" height="70" as="geometry" />
        </mxCell>
        <mxCell id="o_AM2bvugPRdjeRnzftn-22" value="Images" style="strokeWidth=2;html=1;shape=mxgraph.flowchart.multi-document;whiteSpace=wrap;" vertex="1" parent="1">
          <mxGeometry x="664" y="160" width="88" height="60" as="geometry" />
        </mxCell>
        <mxCell id="o_AM2bvugPRdjeRnzftn-23" value="" style="strokeWidth=2;html=1;shape=mxgraph.flowchart.annotation_2;align=left;labelPosition=right;pointerEvents=1;" vertex="1" parent="1">
          <mxGeometry x="315" y="40" width="50" height="230" as="geometry" />
        </mxCell>
        <mxCell id="o_AM2bvugPRdjeRnzftn-24" value="" style="strokeWidth=2;html=1;shape=mxgraph.flowchart.annotation_2;align=left;labelPosition=right;pointerEvents=1;" vertex="1" parent="1">
          <mxGeometry x="315" y="300" width="50" height="160" as="geometry" />
        </mxCell>
        <mxCell id="o_AM2bvugPRdjeRnzftn-25" value="Users Browser Session" style="text;html=1;align=center;verticalAlign=middle;resizable=0;points=[];autosize=1;strokeColor=none;fillColor=none;" vertex="1" parent="1">
          <mxGeometry x="165" y="145" width="140" height="20" as="geometry" />
        </mxCell>
        <mxCell id="o_AM2bvugPRdjeRnzftn-26" value="Firebase / Google Cloud" style="text;html=1;align=center;verticalAlign=middle;resizable=0;points=[];autosize=1;strokeColor=none;fillColor=none;" vertex="1" parent="1">
          <mxGeometry x="160" y="370" width="150" height="20" as="geometry" />
        </mxCell>
        <mxCell id="o_AM2bvugPRdjeRnzftn-27" value="Data Type Storage" style="shape=table;startSize=30;container=1;collapsible=1;childLayout=tableLayout;fixedRows=1;rowLines=0;fontStyle=1;align=center;resizeLast=1;" vertex="1" parent="1">
          <mxGeometry x="353" y="490" width="462.5" height="160" as="geometry">
            <mxRectangle x="353" y="490" width="140" height="30" as="alternateBounds" />
          </mxGeometry>
        </mxCell>
        <mxCell id="o_AM2bvugPRdjeRnzftn-28" value="" style="shape=partialRectangle;collapsible=0;dropTarget=0;pointerEvents=0;fillColor=none;top=0;left=0;bottom=1;right=0;points=[[0,0.5],[1,0.5]];portConstraint=eastwest;" vertex="1" parent="o_AM2bvugPRdjeRnzftn-27">
          <mxGeometry y="30" width="462.5" height="30" as="geometry" />
        </mxCell>
        <mxCell id="o_AM2bvugPRdjeRnzftn-29" value="Firebase Firestore" style="shape=partialRectangle;connectable=0;fillColor=none;top=0;left=0;bottom=0;right=0;fontStyle=5;overflow=hidden;" vertex="1" parent="o_AM2bvugPRdjeRnzftn-28">
          <mxGeometry width="227" height="30" as="geometry">
            <mxRectangle width="227" height="30" as="alternateBounds" />
          </mxGeometry>
        </mxCell>
        <mxCell id="o_AM2bvugPRdjeRnzftn-30" value="Google Cloud Storage Bucket" style="shape=partialRectangle;connectable=0;fillColor=none;top=0;left=0;bottom=0;right=0;align=center;spacingLeft=6;fontStyle=5;overflow=hidden;" vertex="1" parent="o_AM2bvugPRdjeRnzftn-28">
          <mxGeometry x="227" width="235.5" height="30" as="geometry">
            <mxRectangle width="235.5" height="30" as="alternateBounds" />
          </mxGeometry>
        </mxCell>
        <mxCell id="o_AM2bvugPRdjeRnzftn-31" value="" style="shape=partialRectangle;collapsible=0;dropTarget=0;pointerEvents=0;fillColor=none;top=0;left=0;bottom=0;right=0;points=[[0,0.5],[1,0.5]];portConstraint=eastwest;" vertex="1" parent="o_AM2bvugPRdjeRnzftn-27">
          <mxGeometry y="60" width="462.5" height="30" as="geometry" />
        </mxCell>
        <mxCell id="o_AM2bvugPRdjeRnzftn-32" value="User data; UID, email, plant references" style="shape=partialRectangle;connectable=0;fillColor=none;top=0;left=0;bottom=0;right=0;editable=1;overflow=hidden;fontStyle=0" vertex="1" parent="o_AM2bvugPRdjeRnzftn-31">
          <mxGeometry width="227" height="30" as="geometry">
            <mxRectangle width="227" height="30" as="alternateBounds" />
          </mxGeometry>
        </mxCell>
        <mxCell id="o_AM2bvugPRdjeRnzftn-33" value="Images" style="shape=partialRectangle;connectable=0;fillColor=none;top=0;left=0;bottom=0;right=0;align=left;spacingLeft=6;overflow=hidden;" vertex="1" parent="o_AM2bvugPRdjeRnzftn-31">
          <mxGeometry x="227" width="235.5" height="30" as="geometry">
            <mxRectangle width="235.5" height="30" as="alternateBounds" />
          </mxGeometry>
        </mxCell>
        <mxCell id="o_AM2bvugPRdjeRnzftn-34" value="" style="shape=partialRectangle;collapsible=0;dropTarget=0;pointerEvents=0;fillColor=none;top=0;left=0;bottom=0;right=0;points=[[0,0.5],[1,0.5]];portConstraint=eastwest;" vertex="1" parent="o_AM2bvugPRdjeRnzftn-27">
          <mxGeometry y="90" width="462.5" height="30" as="geometry" />
        </mxCell>
        <mxCell id="o_AM2bvugPRdjeRnzftn-35" value="Plant Data; name, desc. imageurl, date&#xa;Watering Time" style="shape=partialRectangle;connectable=0;fillColor=none;top=0;left=0;bottom=0;right=0;editable=1;overflow=hidden;" vertex="1" parent="o_AM2bvugPRdjeRnzftn-34">
          <mxGeometry width="227" height="30" as="geometry">
            <mxRectangle width="227" height="30" as="alternateBounds" />
          </mxGeometry>
        </mxCell>
        <mxCell id="o_AM2bvugPRdjeRnzftn-36" value="Image URL&#39;s" style="shape=partialRectangle;connectable=0;fillColor=none;top=0;left=0;bottom=0;right=0;align=left;spacingLeft=6;overflow=hidden;" vertex="1" parent="o_AM2bvugPRdjeRnzftn-34">
          <mxGeometry x="227" width="235.5" height="30" as="geometry">
            <mxRectangle width="235.5" height="30" as="alternateBounds" />
          </mxGeometry>
        </mxCell>
        <mxCell id="o_AM2bvugPRdjeRnzftn-37" value="" style="shape=partialRectangle;collapsible=0;dropTarget=0;pointerEvents=0;fillColor=none;top=0;left=0;bottom=0;right=0;points=[[0,0.5],[1,0.5]];portConstraint=eastwest;" vertex="1" parent="o_AM2bvugPRdjeRnzftn-27">
          <mxGeometry y="120" width="462.5" height="30" as="geometry" />
        </mxCell>
        <mxCell id="o_AM2bvugPRdjeRnzftn-38" value="" style="shape=partialRectangle;connectable=0;fillColor=none;top=0;left=0;bottom=0;right=0;editable=1;overflow=hidden;" vertex="1" parent="o_AM2bvugPRdjeRnzftn-37">
          <mxGeometry width="227" height="30" as="geometry">
            <mxRectangle width="227" height="30" as="alternateBounds" />
          </mxGeometry>
        </mxCell>
        <mxCell id="o_AM2bvugPRdjeRnzftn-39" value="" style="shape=partialRectangle;connectable=0;fillColor=none;top=0;left=0;bottom=0;right=0;align=left;spacingLeft=6;overflow=hidden;" vertex="1" parent="o_AM2bvugPRdjeRnzftn-37">
          <mxGeometry x="227" width="235.5" height="30" as="geometry">
            <mxRectangle width="235.5" height="30" as="alternateBounds" />
          </mxGeometry>
        </mxCell>
      </root>
    </mxGraphModel>
  </diagram>
</mxfile>
